# xmcd CD database file
#
# Track frame offsets:
#	150
#	22173
#	33769
#	56064
#	74174
#	87481
#	111761
#	140546
#	174324
#	183358
#	217228
#	242396
#	257589
#	285042
#	304605
#
# Disc length: 4308 seconds
#
# Revision: 0
# Processed by: cddbd v1.5.2PL0 Copyright (c) Steve Scherf et al.
# Submitted via: CDex 1.51
#
DISCID=d410d20f
DTITLE=Marc Moulin - Boxof [CD3)
DYEAR=2009
DGENRE=Jazz
TTITLE0=I am you
TTITLE1=Humpty dumpty
TTITLE2=Y.U.? (the Vowels tune)(alternative mix)
TTITLE3=Preface
TTITLE4=Killer Joe (live)
TTITLE5=Metaco (demo)
TTITLE6=Comme à la radio
TTITLE7=Organ
TTITLE8=Ball of eyes
TTITLE9=Stomp
TTITLE10=Alfred
TTITLE11=Polk
TTITLE12=There comes a time
TTITLE13=Le beau galop
TTITLE14=Hazard
EXTD=YEAR: 2009
EXTT0=
EXTT1=
EXTT2=
EXTT3=
EXTT4=
EXTT5=
EXTT6=
EXTT7=
EXTT8=
EXTT9=
EXTT10=
EXTT11=
EXTT12=
EXTT13=
EXTT14=
PLAYORDER=
